<svg width="46" height="46" viewBox="0 0 46 46" fill="none" xmlns="http://www.w3.org/2000/svg">
<rect y="-7.62939e-05" width="32" height="32" rx="10" fill="#F2F0FE"/>
<path opacity="0.2" d="M19.4062 23.453H13.625C12.9864 23.453 12.4688 23.9707 12.4688 24.6093V30.3905C12.4688 31.0291 12.9864 31.5468 13.625 31.5468H19.4062C20.0448 31.5468 20.5625 31.0291 20.5625 30.3905V24.6093C20.5625 23.9707 20.0448 23.453 19.4062 23.453Z" fill="#7966FA"/>
<path opacity="0.2" d="M33.2813 14.8437H40.2188C40.8228 14.8437 41.3125 15.3334 41.3125 15.9374V22.8749C41.3125 23.479 40.8228 23.9687 40.2188 23.9687H33.2813C32.6772 23.9687 32.1875 23.479 32.1875 22.8749V15.9374C32.1875 15.3334 32.6772 14.8437 33.2813 14.8437Z" fill="#7966FA" stroke="#7966FA" stroke-width="0.125"/>
<path opacity="0.2" d="M33.2813 31.0312H40.2188C40.8228 31.0312 41.3125 31.5209 41.3125 32.1249V39.0624C41.3125 39.6665 40.8228 40.1562 40.2188 40.1562H33.2813C32.6772 40.1562 32.1875 39.6665 32.1875 39.0624V32.1249C32.1875 31.5209 32.6772 31.0312 33.2813 31.0312Z" fill="#7966FA" stroke="#7966FA" stroke-width="0.125"/>
<path d="M19.4062 23.453H13.625C12.9864 23.453 12.4688 23.9707 12.4688 24.6093V30.3905C12.4688 31.0291 12.9864 31.5468 13.625 31.5468H19.4062C20.0448 31.5468 20.5625 31.0291 20.5625 30.3905V24.6093C20.5625 23.9707 20.0448 23.453 19.4062 23.453Z" stroke="#7966FA" stroke-width="2" stroke-linecap="round" stroke-linejoin="round"/>
<path d="M40.2188 14.7812H33.2813C32.6427 14.7812 32.125 15.2988 32.125 15.9374V22.8749C32.125 23.5135 32.6427 24.0312 33.2813 24.0312H40.2188C40.8573 24.0312 41.375 23.5135 41.375 22.8749V15.9374C41.375 15.2988 40.8573 14.7812 40.2188 14.7812Z" stroke="#7966FA" stroke-width="2" stroke-linecap="round" stroke-linejoin="round"/>
<path d="M40.2188 30.9687H33.2813C32.6427 30.9687 32.125 31.4863 32.125 32.1249V39.0624C32.125 39.701 32.6427 40.2187 33.2813 40.2187H40.2188C40.8573 40.2187 41.375 39.701 41.375 39.0624V32.1249C41.375 31.4863 40.8573 30.9687 40.2188 30.9687Z" stroke="#7966FA" stroke-width="2" stroke-linecap="round" stroke-linejoin="round"/>
<path d="M20.5625 27.4999H26.3438" stroke="#7966FA" stroke-width="2" stroke-linecap="round" stroke-linejoin="round"/>
<path d="M32.125 35.5937H29.8125C28.8925 35.5937 28.0102 35.2282 27.3597 34.5777C26.7092 33.9272 26.3438 33.0449 26.3438 32.1249V22.8749C26.3438 21.955 26.7092 21.0727 27.3597 20.4221C28.0102 19.7716 28.8925 19.4062 29.8125 19.4062H32.125" stroke="#7966FA" stroke-width="2" stroke-linecap="round" stroke-linejoin="round"/>
</svg>
