<svg width="46" height="46" viewBox="0 0 46 46" fill="none" xmlns="http://www.w3.org/2000/svg">
<rect width="32" height="32" rx="10" fill="#F2F0FE"/>
<path opacity="0.2" d="M14.3 34.0109L17.7958 14.1851C17.849 13.8831 18.0201 13.6147 18.2713 13.4388C18.5225 13.2629 18.8332 13.194 19.1352 13.2472L27.106 14.6527C27.408 14.706 27.6765 14.877 27.8524 15.1282C28.0283 15.3794 28.0972 15.6902 28.0439 15.9922L24.5303 35.9191C24.2937 37.2608 23.5403 38.4562 22.432 39.2485C21.3237 40.0408 19.9488 40.3667 18.6028 40.1564C15.7204 39.7048 13.7933 36.8841 14.3 34.0109Z" fill="#7966FA"/>
<path d="M14.3 34.0109L17.7958 14.1851C17.849 13.8831 18.0201 13.6147 18.2713 13.4388C18.5225 13.2629 18.8332 13.194 19.1352 13.2472L27.106 14.6527C27.408 14.706 27.6765 14.877 27.8524 15.1282C28.0283 15.3794 28.0972 15.6902 28.0439 15.9922L24.5303 35.9191C24.2937 37.2608 23.5403 38.4562 22.432 39.2485C21.3237 40.0408 19.9488 40.3667 18.6028 40.1564C15.7204 39.7048 13.7933 36.8841 14.3 34.0109Z" stroke="#7966FA" stroke-width="2.035" stroke-linecap="round" stroke-linejoin="round"/>
<path d="M26.0953 27.0439L36.6407 23.2057C36.9289 23.1008 37.2469 23.1147 37.5249 23.2443C37.8028 23.3739 38.0178 23.6086 38.1227 23.8968L40.8909 31.5024C40.9429 31.6451 40.9662 31.7966 40.9596 31.9483C40.953 32.1 40.9165 32.2489 40.8524 32.3865C40.7882 32.5241 40.6975 32.6478 40.5856 32.7503C40.4736 32.8529 40.3426 32.9324 40.1999 32.9844L21.1858 39.9049" stroke="#7966FA" stroke-width="2.035" stroke-linecap="round" stroke-linejoin="round"/>
<path d="M40.7969 32.4911V39.0625C40.7969 39.3691 40.6751 39.6632 40.4582 39.8801C40.2414 40.0969 39.9473 40.2187 39.6406 40.2187H19.4062" stroke="#7966FA" stroke-width="2.035" stroke-linecap="round" stroke-linejoin="round"/>
<path d="M19.4063 36.75C20.3641 36.75 21.1406 35.9735 21.1406 35.0156C21.1406 34.0578 20.3641 33.2812 19.4063 33.2812C18.4484 33.2812 17.6719 34.0578 17.6719 35.0156C17.6719 35.9735 18.4484 36.75 19.4063 36.75Z" fill="#7966FA"/>
</svg>
