<svg id="圖層_1" data-name="圖層 1" xmlns="http://www.w3.org/2000/svg" xmlns:xlink="http://www.w3.org/1999/xlink" viewBox="0 0 2000 1000"><defs><style>.cls-1{fill:none;}.cls-2{clip-path:url(#clip-path);}.cls-3{fill:url(#未命名漸層_2);}.cls-4{clip-path:url(#clip-path-2);}.cls-5{clip-path:url(#clip-path-3);}.cls-10,.cls-12,.cls-14,.cls-16,.cls-18,.cls-6,.cls-8{opacity:0.5;}.cls-10,.cls-12,.cls-14,.cls-16,.cls-18,.cls-21,.cls-6,.cls-8{isolation:isolate;}.cls-6{fill:url(#未命名漸層_8);}.cls-7{clip-path:url(#clip-path-4);}.cls-8{fill:url(#未命名漸層_8-2);}.cls-9{clip-path:url(#clip-path-5);}.cls-10{fill:url(#未命名漸層_8-3);}.cls-11{clip-path:url(#clip-path-6);}.cls-12{fill:url(#未命名漸層_8-4);}.cls-13{clip-path:url(#clip-path-7);}.cls-14{fill:url(#未命名漸層_8-5);}.cls-15{clip-path:url(#clip-path-8);}.cls-16{fill:url(#未命名漸層_8-6);}.cls-17{clip-path:url(#clip-path-9);}.cls-18{fill:url(#未命名漸層_8-7);}.cls-19{fill:url(#未命名漸層_18);}.cls-20{clip-path:url(#clip-path-10);}.cls-21{fill:url(#未命名漸層_7);}</style><clipPath id="clip-path"><rect class="cls-1" x="0.03" width="2000" height="1000"/></clipPath><linearGradient id="未命名漸層_2" x1="541.19" y1="-530.27" x2="1046.08" y2="1655.31" gradientTransform="translate(0 -28)" gradientUnits="userSpaceOnUse"><stop offset="0" stop-color="#fff"/><stop offset="0" stop-color="#5c87c1"/><stop offset="0.1" stop-color="#a7c4f0"/><stop offset="0.18" stop-color="#6d97d7"/><stop offset="0.25" stop-color="#839ec5"/><stop offset="0.39" stop-color="#80a4cf"/><stop offset="0.45" stop-color="#a5c0dc"/><stop offset="0.61" stop-color="#9eb5db"/><stop offset="0.8" stop-color="#1e55a3"/><stop offset="0.89" stop-color="#1f57a7"/><stop offset="1" stop-color="#4d3ecf"/><stop offset="1" stop-color="#1f57a7"/></linearGradient><clipPath id="clip-path-2"><rect class="cls-1" x="-354.97" y="3" width="1920" height="1183"/></clipPath><clipPath id="clip-path-3"><rect class="cls-1" x="188.03" y="-24" width="138" height="160"/></clipPath><linearGradient id="未命名漸層_8" x1="239.57" y1="23.2" x2="252.79" y2="69.25" gradientTransform="translate(0 -28)" gradientUnits="userSpaceOnUse"><stop offset="0" stop-color="#fff"/><stop offset="1" stop-color="#fff" stop-opacity="0.3"/></linearGradient><clipPath id="clip-path-4"><rect class="cls-1" x="119.03" y="96" width="138" height="160"/></clipPath><linearGradient id="未命名漸層_8-2" x1="170.57" y1="143.2" x2="183.79" y2="189.25" xlink:href="#未命名漸層_8"/><clipPath id="clip-path-5"><rect class="cls-1" x="-18.97" y="96" width="138" height="160"/></clipPath><linearGradient id="未命名漸層_8-3" x1="32.57" y1="143.2" x2="45.79" y2="189.25" xlink:href="#未命名漸層_8"/><clipPath id="clip-path-6"><rect class="cls-1" x="50.03" y="216" width="138" height="160"/></clipPath><linearGradient id="未命名漸層_8-4" x1="101.57" y1="263.2" x2="114.79" y2="309.25" xlink:href="#未命名漸層_8"/><clipPath id="clip-path-7"><rect class="cls-1" x="50.03" y="456" width="138" height="160"/></clipPath><linearGradient id="未命名漸層_8-5" x1="101.57" y1="503.2" x2="114.79" y2="549.25" xlink:href="#未命名漸層_8"/><clipPath id="clip-path-8"><rect class="cls-1" x="-18.97" y="576" width="138" height="160"/></clipPath><linearGradient id="未命名漸層_8-6" x1="32.57" y1="623.2" x2="45.79" y2="669.25" xlink:href="#未命名漸層_8"/><clipPath id="clip-path-9"><rect class="cls-1" x="188.03" y="215" width="138" height="160"/></clipPath><linearGradient id="未命名漸層_8-7" x1="239.57" y1="262.2" x2="252.79" y2="308.25" xlink:href="#未命名漸層_8"/><linearGradient id="未命名漸層_18" x1="957.39" y1="645.33" x2="1054.74" y2="1123.98" gradientUnits="userSpaceOnUse"><stop offset="0" stop-color="#75a9ea"/><stop offset="0.18" stop-color="#6ea3e7"/><stop offset="0.44" stop-color="#5a91df"/><stop offset="0.76" stop-color="#3975d1"/><stop offset="1" stop-color="#1b5ac5"/></linearGradient><clipPath id="clip-path-10"><rect class="cls-1" x="-549.97" y="773.63" width="3612.5" height="226.2"/></clipPath><linearGradient id="未命名漸層_7" x1="1256.28" y1="769.21" x2="1256.28" y2="973.25" gradientUnits="userSpaceOnUse"><stop offset="0.2" stop-color="#75a9ea"/><stop offset="0.38" stop-color="#588fde"/><stop offset="0.63" stop-color="#3772d0"/><stop offset="0.84" stop-color="#2260c8"/><stop offset="0.98" stop-color="#1b5ac5"/></linearGradient></defs><g class="cls-2"><path class="cls-3" d="M2731.42-.35H-1160.26v1000H2731.42Z"/><g class="cls-4"><g class="cls-5"><path class="cls-6" d="M257-24,188,16V96l69,40,69-40V16Z"/></g><g class="cls-7"><path class="cls-8" d="M188,96l-69,40v80l69,40,69-40V136Z"/></g><g class="cls-9"><path class="cls-10" d="M50,96l-69,40v80l69,40,69-40V136Z"/></g><g class="cls-11"><path class="cls-12" d="M119,216,50,256v80l69,40,69-40V256Z"/></g><g class="cls-13"><path class="cls-14" d="M119,456,50,496v80l69,40,69-40V496Z"/></g><g class="cls-15"><path class="cls-16" d="M50,576l-69,40v80l69,40,69-40V616Z"/></g><g class="cls-17"><path class="cls-18" d="M257,215l-69,40v80l69,40,69-40V255Z"/></g></g><path class="cls-19" d="M-300,950.23S475,623,1018.23,728.93c582.9,113.5,836.9,142.3,1282.8-13.9v284.8H-300Z"/><g class="cls-20"><path class="cls-21" d="M-550,999.73h3612.5s-1116.3-274-1842-176.2S225.63,930-550,773.53Z"/></g></g></svg>