<svg xmlns="http://www.w3.org/2000/svg" version="1.1" xmlns:xlink="http://www.w3.org/1999/xlink" xmlns:svgjs="http://svgjs.com/svgjs" width="1600" height="1000" preserveAspectRatio="none" viewBox="0 0 1600 1000"><g mask="url(&quot;#SvgjsMask1832&quot;)" fill="none"><rect width="1600" height="1000" x="0" y="0" fill="url(#SvgjsRadialGradient1833)"></rect><path d="M221.487,439.481C308.976,444.399,404.871,428.477,451.482,354.275C500.374,276.44,482,177.215,436.342,97.44C390.34,17.063,314.094,-48.351,221.487,-47.581C129.954,-46.82,53.673,19.092,12.73,100.961C-24.117,174.641,-10.938,260.593,32.303,330.712C73.225,397.072,143.647,435.106,221.487,439.481" fill="rgba(115, 143, 255, 0.42)" class="triangle-float2"></path><path d="M70.193,173.983C110.877,175.45,153.933,165.504,175.79,131.159C199.05,94.611,195.856,47.662,174.614,9.905C152.933,-28.632,114.409,-56.205,70.193,-56.533C25.448,-56.865,-16.421,-31.426,-36.945,8.336C-56.034,45.319,-45.589,89.044,-22.986,123.99C-2.469,155.711,32.44,172.621,70.193,173.983" fill="rgba(115, 143, 255, 0.42)" class="triangle-float1"></path><path d="M111.428,250.12C165.781,249.285,222.704,238.351,252.371,192.801C284.543,143.405,287.454,77.825,256.199,27.844C226.483,-19.677,167.467,-33.556,111.428,-32.585C57.429,-31.649,4.422,-12.635,-24.908,32.714C-56.922,82.211,-68.542,147.311,-37.224,197.252C-7.277,245.006,55.068,250.986,111.428,250.12" fill="rgba(115, 143, 255, 0.42)" class="triangle-float2"></path><path d="M1600.403,422.695C1680.87,420.213,1757.625,384.133,1798.085,314.534C1838.746,244.59,1832.775,159.6,1794.91,88.104C1754.16,11.162,1687.464,-57.732,1600.403,-58.722C1512.035,-59.727,1441.829,6.807,1398.081,83.593C1354.845,159.481,1335.652,252.416,1380.403,327.42C1424.289,400.975,1514.792,425.336,1600.403,422.695" fill="rgba(115, 143, 255, 0.42)" class="triangle-float3"></path><path d="M1485.33,235.788C1535.796,235.846,1574.41,194.978,1597.718,150.217C1619.098,109.16,1619.25,61.436,1597.36,20.649C1574.118,-22.657,1534.477,-59.578,1485.33,-59.192C1436.685,-58.81,1399.262,-20.504,1376.307,22.386C1354.795,62.58,1352.651,109.36,1373.391,149.958C1396.318,194.836,1434.935,235.73,1485.33,235.788" fill="rgba(115, 143, 255, 0.42)" class="triangle-float3"></path><path d="M1422.502,94.25C1447.827,94.74,1469.133,78.617,1483.139,57.511C1499.194,33.317,1513.663,3.39,1499.685,-22.06C1485.39,-48.087,1452.091,-55.388,1422.502,-52.895C1397.107,-50.755,1376.813,-33.279,1364.978,-10.709C1354.035,10.159,1354.473,34.577,1365.798,55.24C1377.616,76.803,1397.918,93.774,1422.502,94.25" fill="rgba(115, 143, 255, 0.42)" class="triangle-float1"></path><path d="M265.768,1380.636C372.568,1381.948,457.452,1299.72,508.248,1205.764C556.319,1116.849,560.563,1012.205,513.244,922.887C462.567,827.231,374.015,749.038,265.768,748.064C156.128,747.078,60.601,820.859,10.458,918.365C-35.698,1008.118,-15.4,1111.582,33.394,1199.929C84.238,1291.99,160.608,1379.344,265.768,1380.636" fill="rgba(115, 143, 255, 0.42)" class="triangle-float3"></path><path d="M110.665,1083.951C171.993,1085.986,229.447,1050.045,258.047,995.756C284.964,944.661,274.178,882.78,241.854,834.923C213.222,792.532,161.783,779.484,110.665,777.55C54.714,775.434,-9.12,776.9,-38.92,824.302C-69.956,873.671,-49.805,935.976,-20.695,986.505C8.475,1037.138,52.263,1082.013,110.665,1083.951" fill="rgba(115, 143, 255, 0.42)" class="triangle-float1"></path><path d="M34.032,906.286C64.382,907.836,99.132,906.689,115.219,880.906C131.901,854.169,120.439,820.534,104.497,793.349C88.788,766.561,65.083,742.872,34.032,742.458C2.394,742.037,-25.17,763.351,-39.761,791.427C-53.281,817.443,-49.806,848.619,-33.958,873.286C-19.363,896.003,7.066,904.909,34.032,906.286" fill="rgba(115, 143, 255, 0.42)" class="triangle-float2"></path><path d="M1524.906,1066.78C1575.487,1066.356,1622.219,1039.497,1647.271,995.553C1672.09,952.018,1666.905,900.596,1645.471,855.298C1619.655,800.739,1585.249,738.275,1524.906,736.948C1463.39,735.595,1421.561,794.381,1394.79,849.783C1371.799,897.362,1371.762,952.314,1398.937,997.634C1425.339,1041.664,1473.569,1067.21,1524.906,1066.78" fill="rgba(115, 143, 255, 0.42)" class="triangle-float3"></path><path d="M1504.807,1070.272C1562.112,1070.204,1610.837,1032.189,1638.867,982.207C1666.244,933.39,1673.028,872.183,1642.031,825.581C1613.462,782.629,1556.382,779.594,1504.807,780.656C1455.747,781.666,1404.256,790.211,1377.033,831.037C1346.977,876.111,1344.675,934.736,1370.198,982.523C1397.243,1033.16,1447.4,1070.34,1504.807,1070.272" fill="rgba(115, 143, 255, 0.42)" class="triangle-float3"></path><path d="M1645.576,1292.752C1734.126,1290.865,1818.588,1247.702,1860.902,1169.894C1901.565,1095.122,1885.881,1005.086,1841.52,932.447C1799.201,863.151,1726.683,821.097,1645.576,817.307C1556.588,813.149,1463.152,837.496,1415.119,912.522C1363.704,992.831,1364.316,1097.877,1413.742,1179.425C1461.528,1258.267,1553.404,1294.717,1645.576,1292.752" fill="rgba(115, 143, 255, 0.42)" class="triangle-float1"></path></g><defs><mask id="SvgjsMask1832"><rect width="1600" height="1000" fill="#ffffff"></rect></mask><radialGradient cx="0%" cy="0%" r="1886.8" gradientUnits="userSpaceOnUse" id="SvgjsRadialGradient1833"><stop stop-color="rgba(211, 215, 219, 1)" offset="0"></stop><stop stop-color="rgba(100, 151, 217, 1)" offset="1"></stop></radialGradient><style>
            @keyframes float1 {
                0%{transform: translate(0, 0)}
                50%{transform: translate(-10px, 0)}
                100%{transform: translate(0, 0)}
            }

            .triangle-float1 {
                animation: float1 5s infinite;
            }

            @keyframes float2 {
                0%{transform: translate(0, 0)}
                50%{transform: translate(-5px, -5px)}
                100%{transform: translate(0, 0)}
            }

            .triangle-float2 {
                animation: float2 4s infinite;
            }

            @keyframes float3 {
                0%{transform: translate(0, 0)}
                50%{transform: translate(0, -10px)}
                100%{transform: translate(0, 0)}
            }

            .triangle-float3 {
                animation: float3 6s infinite;
            }
        </style></defs></svg>